<mxfile host="app.diagrams.net" agent="Mozilla/5.0 (Windows NT 10.0; Win64; x64; rv:134.0) Gecko/20100101 Firefox/134.0" version="26.0.10">
  <diagram name="Página-1" id="gS3BvCxEZ3Ns-tJpQnwd">
    <mxGraphModel dx="2577" dy="2099" grid="1" gridSize="10" guides="1" tooltips="1" connect="1" arrows="1" fold="1" page="1" pageScale="1" pageWidth="827" pageHeight="1169" math="0" shadow="0">
      <root>
        <mxCell id="0" />
        <mxCell id="1" parent="0" />
        <mxCell id="_qHGHUX5CEyV-myd-aj9-1" value="&lt;font style=&quot;font-size: 24px;&quot;&gt;Jogador&lt;/font&gt;" style="rounded=1;arcSize=10;whiteSpace=wrap;html=1;align=center;" parent="1" vertex="1">
          <mxGeometry x="-290" y="210" width="130" height="60" as="geometry" />
        </mxCell>
        <mxCell id="_qHGHUX5CEyV-myd-aj9-2" value="&lt;font style=&quot;font-size: 24px;&quot;&gt;Partida&lt;/font&gt;" style="rounded=1;arcSize=10;whiteSpace=wrap;html=1;align=center;" parent="1" vertex="1">
          <mxGeometry x="590" y="360" width="130" height="60" as="geometry" />
        </mxCell>
        <mxCell id="_qHGHUX5CEyV-myd-aj9-3" value="&lt;font style=&quot;font-size: 24px;&quot;&gt;Torneio&lt;/font&gt;" style="rounded=1;arcSize=10;whiteSpace=wrap;html=1;align=center;" parent="1" vertex="1">
          <mxGeometry x="590" y="60" width="130" height="60" as="geometry" />
        </mxCell>
        <mxCell id="_qHGHUX5CEyV-myd-aj9-4" value="&lt;font style=&quot;font-size: 24px;&quot;&gt;Time&lt;/font&gt;" style="rounded=1;arcSize=10;whiteSpace=wrap;html=1;align=center;" parent="1" vertex="1">
          <mxGeometry x="155" y="210" width="130" height="60" as="geometry" />
        </mxCell>
        <mxCell id="_qHGHUX5CEyV-myd-aj9-7" style="edgeStyle=orthogonalEdgeStyle;rounded=0;orthogonalLoop=1;jettySize=auto;html=1;exitX=0.5;exitY=1;exitDx=0;exitDy=0;" parent="1" source="_qHGHUX5CEyV-myd-aj9-3" target="_qHGHUX5CEyV-myd-aj9-3" edge="1">
          <mxGeometry relative="1" as="geometry" />
        </mxCell>
        <mxCell id="_qHGHUX5CEyV-myd-aj9-8" value="&lt;font style=&quot;font-size: 16px;&quot;&gt;Nome&lt;/font&gt;" style="ellipse;whiteSpace=wrap;html=1;align=center;" parent="1" vertex="1">
          <mxGeometry x="-330" y="140" width="50" height="30" as="geometry" />
        </mxCell>
        <mxCell id="_qHGHUX5CEyV-myd-aj9-11" value="&lt;font style=&quot;font-size: 16px;&quot;&gt;Idade&lt;/font&gt;" style="ellipse;whiteSpace=wrap;html=1;align=center;" parent="1" vertex="1">
          <mxGeometry x="-270" y="110" width="60" height="30" as="geometry" />
        </mxCell>
        <mxCell id="_qHGHUX5CEyV-myd-aj9-12" value="&lt;font style=&quot;font-size: 16px;&quot;&gt;ID_Jogador&lt;/font&gt;" style="ellipse;whiteSpace=wrap;html=1;align=center;fontStyle=4;" parent="1" vertex="1">
          <mxGeometry x="-200" y="140" width="90" height="40" as="geometry" />
        </mxCell>
        <mxCell id="_qHGHUX5CEyV-myd-aj9-17" value="" style="endArrow=none;html=1;rounded=0;entryX=0.25;entryY=0;entryDx=0;entryDy=0;exitX=0.5;exitY=1;exitDx=0;exitDy=0;" parent="1" source="_qHGHUX5CEyV-myd-aj9-8" target="_qHGHUX5CEyV-myd-aj9-1" edge="1">
          <mxGeometry relative="1" as="geometry">
            <mxPoint x="-330" y="150" as="sourcePoint" />
            <mxPoint x="-170" y="150" as="targetPoint" />
          </mxGeometry>
        </mxCell>
        <mxCell id="_qHGHUX5CEyV-myd-aj9-18" value="" style="endArrow=none;html=1;rounded=0;exitX=0.5;exitY=1;exitDx=0;exitDy=0;entryX=0.5;entryY=0;entryDx=0;entryDy=0;" parent="1" source="_qHGHUX5CEyV-myd-aj9-11" target="_qHGHUX5CEyV-myd-aj9-1" edge="1">
          <mxGeometry relative="1" as="geometry">
            <mxPoint x="-210" y="160" as="sourcePoint" />
            <mxPoint x="-50" y="160" as="targetPoint" />
          </mxGeometry>
        </mxCell>
        <mxCell id="_qHGHUX5CEyV-myd-aj9-19" value="" style="endArrow=none;html=1;rounded=0;entryX=0.5;entryY=1;entryDx=0;entryDy=0;exitX=0.75;exitY=0;exitDx=0;exitDy=0;" parent="1" source="_qHGHUX5CEyV-myd-aj9-1" target="_qHGHUX5CEyV-myd-aj9-12" edge="1">
          <mxGeometry relative="1" as="geometry">
            <mxPoint x="-170" y="180" as="sourcePoint" />
            <mxPoint x="-10" y="180" as="targetPoint" />
          </mxGeometry>
        </mxCell>
        <mxCell id="_qHGHUX5CEyV-myd-aj9-21" value="&lt;font style=&quot;font-size: 16px;&quot;&gt;ID_Time&lt;/font&gt;" style="ellipse;whiteSpace=wrap;html=1;align=center;fontStyle=4;" parent="1" vertex="1">
          <mxGeometry x="170" y="40" width="100" height="40" as="geometry" />
        </mxCell>
        <mxCell id="_qHGHUX5CEyV-myd-aj9-22" value="&lt;font style=&quot;font-size: 16px;&quot;&gt;Vitórias&lt;/font&gt;" style="ellipse;whiteSpace=wrap;html=1;align=center;" parent="1" vertex="1">
          <mxGeometry x="113" y="100" width="100" height="40" as="geometry" />
        </mxCell>
        <mxCell id="_qHGHUX5CEyV-myd-aj9-23" value="&lt;font style=&quot;font-size: 16px;&quot;&gt;Derrotas&lt;/font&gt;" style="ellipse;whiteSpace=wrap;html=1;align=center;" parent="1" vertex="1">
          <mxGeometry x="90" y="300" width="100" height="40" as="geometry" />
        </mxCell>
        <mxCell id="_qHGHUX5CEyV-myd-aj9-25" value="&lt;font style=&quot;font-size: 16px;&quot;&gt;Partidas Jogadas&lt;/font&gt;" style="ellipse;whiteSpace=wrap;html=1;align=center;" parent="1" vertex="1">
          <mxGeometry x="43" y="138.57" width="100" height="40" as="geometry" />
        </mxCell>
        <mxCell id="_qHGHUX5CEyV-myd-aj9-26" value="&lt;font style=&quot;font-size: 16px;&quot;&gt;Nome&lt;/font&gt;" style="ellipse;whiteSpace=wrap;html=1;align=center;" parent="1" vertex="1">
          <mxGeometry x="190" y="310" width="100" height="40" as="geometry" />
        </mxCell>
        <mxCell id="_qHGHUX5CEyV-myd-aj9-27" value="&lt;font style=&quot;font-size: 16px;&quot;&gt;Nome do Jogo&lt;/font&gt;" style="ellipse;whiteSpace=wrap;html=1;align=center;" parent="1" vertex="1">
          <mxGeometry x="495" y="9.999999999999993" width="100" height="40" as="geometry" />
        </mxCell>
        <mxCell id="_qHGHUX5CEyV-myd-aj9-28" value="&lt;font style=&quot;font-size: 16px;&quot;&gt;Nome do Torneio&lt;/font&gt;" style="ellipse;whiteSpace=wrap;html=1;align=center;" parent="1" vertex="1">
          <mxGeometry x="715" y="-10" width="115" height="40" as="geometry" />
        </mxCell>
        <mxCell id="_qHGHUX5CEyV-myd-aj9-29" value="&lt;font style=&quot;font-size: 16px;&quot;&gt;Data de Inicio&lt;/font&gt;" style="ellipse;whiteSpace=wrap;html=1;align=center;" parent="1" vertex="1">
          <mxGeometry x="533" y="-50" width="107" height="40" as="geometry" />
        </mxCell>
        <mxCell id="_qHGHUX5CEyV-myd-aj9-30" value="&lt;font style=&quot;font-size: 16px;&quot;&gt;ID_Torneio&lt;/font&gt;" style="ellipse;whiteSpace=wrap;html=1;align=center;fontStyle=4;" parent="1" vertex="1">
          <mxGeometry x="645" y="-50" width="100" height="40" as="geometry" />
        </mxCell>
        <mxCell id="_qHGHUX5CEyV-myd-aj9-31" value="&lt;font style=&quot;font-size: 16px;&quot;&gt;Nome da Fase&lt;/font&gt;" style="ellipse;whiteSpace=wrap;html=1;align=center;" parent="1" vertex="1">
          <mxGeometry x="1070" y="140" width="110" height="50" as="geometry" />
        </mxCell>
        <mxCell id="_qHGHUX5CEyV-myd-aj9-32" value="&lt;font style=&quot;font-size: 16px;&quot;&gt;Ordem&lt;/font&gt;" style="ellipse;whiteSpace=wrap;html=1;align=center;" parent="1" vertex="1">
          <mxGeometry x="1091" y="300" width="100" height="40" as="geometry" />
        </mxCell>
        <mxCell id="_qHGHUX5CEyV-myd-aj9-35" value="&lt;font style=&quot;font-size: 16px;&quot;&gt;ID_Partida&lt;/font&gt;" style="ellipse;whiteSpace=wrap;html=1;align=center;fontStyle=4;" parent="1" vertex="1">
          <mxGeometry x="680" y="470" width="100" height="40" as="geometry" />
        </mxCell>
        <mxCell id="_qHGHUX5CEyV-myd-aj9-36" value="&lt;font style=&quot;font-size: 16px;&quot;&gt;Local&lt;/font&gt;" style="ellipse;whiteSpace=wrap;html=1;align=center;" parent="1" vertex="1">
          <mxGeometry x="586" y="490" width="100" height="40" as="geometry" />
        </mxCell>
        <mxCell id="_qHGHUX5CEyV-myd-aj9-37" value="&lt;font style=&quot;font-size: 16px;&quot;&gt;Data&lt;/font&gt;" style="ellipse;whiteSpace=wrap;html=1;align=center;" parent="1" vertex="1">
          <mxGeometry x="761" y="440" width="100" height="40" as="geometry" />
        </mxCell>
        <mxCell id="_qHGHUX5CEyV-myd-aj9-38" value="&lt;font style=&quot;font-size: 16px;&quot;&gt;Hora&lt;/font&gt;" style="ellipse;whiteSpace=wrap;html=1;align=center;" parent="1" vertex="1">
          <mxGeometry x="486" y="470" width="100" height="40" as="geometry" />
        </mxCell>
        <mxCell id="_qHGHUX5CEyV-myd-aj9-39" value="&lt;font style=&quot;font-size: 16px;&quot;&gt;Resultado&lt;/font&gt;" style="ellipse;whiteSpace=wrap;html=1;align=center;" parent="1" vertex="1">
          <mxGeometry x="461" y="430" width="100" height="40" as="geometry" />
        </mxCell>
        <mxCell id="_qHGHUX5CEyV-myd-aj9-40" value="" style="endArrow=none;html=1;rounded=0;entryX=0.857;entryY=0;entryDx=0;entryDy=0;exitX=0.5;exitY=1;exitDx=0;exitDy=0;entryPerimeter=0;" parent="1" source="_qHGHUX5CEyV-myd-aj9-31" target="U-FrvizwRQOyuSLjjeMu-61" edge="1">
          <mxGeometry relative="1" as="geometry">
            <mxPoint x="980" y="149.99999999999994" as="sourcePoint" />
            <mxPoint x="1015" y="206.42999999999978" as="targetPoint" />
          </mxGeometry>
        </mxCell>
        <mxCell id="_qHGHUX5CEyV-myd-aj9-42" value="" style="endArrow=none;html=1;rounded=0;entryX=0.358;entryY=0.066;entryDx=0;entryDy=0;entryPerimeter=0;exitX=0.682;exitY=-0.011;exitDx=0;exitDy=0;exitPerimeter=0;" parent="1" source="U-FrvizwRQOyuSLjjeMu-61" target="_qHGHUX5CEyV-myd-aj9-32" edge="1">
          <mxGeometry relative="1" as="geometry">
            <mxPoint x="1080" y="206.42999999999978" as="sourcePoint" />
            <mxPoint x="1220" y="191.43" as="targetPoint" />
          </mxGeometry>
        </mxCell>
        <mxCell id="_qHGHUX5CEyV-myd-aj9-43" value="" style="endArrow=none;html=1;rounded=0;exitX=0.5;exitY=1;exitDx=0;exitDy=0;entryX=0.085;entryY=-0.017;entryDx=0;entryDy=0;entryPerimeter=0;" parent="1" source="_qHGHUX5CEyV-myd-aj9-27" target="_qHGHUX5CEyV-myd-aj9-3" edge="1">
          <mxGeometry relative="1" as="geometry">
            <mxPoint x="558" y="-71.43" as="sourcePoint" />
            <mxPoint x="718" y="-71.43" as="targetPoint" />
          </mxGeometry>
        </mxCell>
        <mxCell id="_qHGHUX5CEyV-myd-aj9-44" value="" style="endArrow=none;html=1;rounded=0;exitX=0.5;exitY=1;exitDx=0;exitDy=0;entryX=0.25;entryY=0;entryDx=0;entryDy=0;" parent="1" source="_qHGHUX5CEyV-myd-aj9-29" target="_qHGHUX5CEyV-myd-aj9-3" edge="1">
          <mxGeometry relative="1" as="geometry">
            <mxPoint x="558" y="-71.43" as="sourcePoint" />
            <mxPoint x="718" y="-71.43" as="targetPoint" />
          </mxGeometry>
        </mxCell>
        <mxCell id="_qHGHUX5CEyV-myd-aj9-45" value="" style="endArrow=none;html=1;rounded=0;exitX=0.5;exitY=1;exitDx=0;exitDy=0;entryX=0.654;entryY=0.033;entryDx=0;entryDy=0;entryPerimeter=0;" parent="1" source="_qHGHUX5CEyV-myd-aj9-30" target="_qHGHUX5CEyV-myd-aj9-3" edge="1">
          <mxGeometry relative="1" as="geometry">
            <mxPoint x="558" y="-71.43" as="sourcePoint" />
            <mxPoint x="718" y="-71.43" as="targetPoint" />
          </mxGeometry>
        </mxCell>
        <mxCell id="_qHGHUX5CEyV-myd-aj9-46" value="" style="endArrow=none;html=1;rounded=0;entryX=0.5;entryY=1;entryDx=0;entryDy=0;exitX=0.946;exitY=0;exitDx=0;exitDy=0;exitPerimeter=0;" parent="1" source="_qHGHUX5CEyV-myd-aj9-3" target="_qHGHUX5CEyV-myd-aj9-28" edge="1">
          <mxGeometry relative="1" as="geometry">
            <mxPoint x="558" y="-71.43" as="sourcePoint" />
            <mxPoint x="718" y="-71.43" as="targetPoint" />
          </mxGeometry>
        </mxCell>
        <mxCell id="_qHGHUX5CEyV-myd-aj9-47" value="" style="endArrow=none;html=1;rounded=0;exitX=0.5;exitY=0;exitDx=0;exitDy=0;entryX=0.75;entryY=1;entryDx=0;entryDy=0;" parent="1" source="_qHGHUX5CEyV-myd-aj9-35" target="_qHGHUX5CEyV-myd-aj9-2" edge="1">
          <mxGeometry relative="1" as="geometry">
            <mxPoint x="593" y="350" as="sourcePoint" />
            <mxPoint x="753" y="350" as="targetPoint" />
          </mxGeometry>
        </mxCell>
        <mxCell id="_qHGHUX5CEyV-myd-aj9-48" value="" style="endArrow=none;html=1;rounded=0;exitX=0.5;exitY=0;exitDx=0;exitDy=0;entryX=0.5;entryY=1;entryDx=0;entryDy=0;" parent="1" source="_qHGHUX5CEyV-myd-aj9-36" target="_qHGHUX5CEyV-myd-aj9-2" edge="1">
          <mxGeometry relative="1" as="geometry">
            <mxPoint x="593" y="350" as="sourcePoint" />
            <mxPoint x="753" y="350" as="targetPoint" />
          </mxGeometry>
        </mxCell>
        <mxCell id="_qHGHUX5CEyV-myd-aj9-49" value="" style="endArrow=none;html=1;rounded=0;exitX=0.758;exitY=0.098;exitDx=0;exitDy=0;entryX=0.25;entryY=1;entryDx=0;entryDy=0;exitPerimeter=0;" parent="1" source="_qHGHUX5CEyV-myd-aj9-38" target="_qHGHUX5CEyV-myd-aj9-2" edge="1">
          <mxGeometry relative="1" as="geometry">
            <mxPoint x="593" y="350" as="sourcePoint" />
            <mxPoint x="753" y="350" as="targetPoint" />
          </mxGeometry>
        </mxCell>
        <mxCell id="_qHGHUX5CEyV-myd-aj9-50" value="" style="endArrow=none;html=1;rounded=0;entryX=0.988;entryY=0.317;entryDx=0;entryDy=0;exitX=0;exitY=1;exitDx=0;exitDy=0;entryPerimeter=0;" parent="1" source="_qHGHUX5CEyV-myd-aj9-2" target="_qHGHUX5CEyV-myd-aj9-39" edge="1">
          <mxGeometry relative="1" as="geometry">
            <mxPoint x="674" y="430" as="sourcePoint" />
            <mxPoint x="753" y="350" as="targetPoint" />
          </mxGeometry>
        </mxCell>
        <mxCell id="_qHGHUX5CEyV-myd-aj9-51" value="" style="endArrow=none;html=1;rounded=0;entryX=0.5;entryY=0;entryDx=0;entryDy=0;exitX=1;exitY=1;exitDx=0;exitDy=0;" parent="1" source="_qHGHUX5CEyV-myd-aj9-2" target="_qHGHUX5CEyV-myd-aj9-37" edge="1">
          <mxGeometry relative="1" as="geometry">
            <mxPoint x="593" y="350" as="sourcePoint" />
            <mxPoint x="753" y="350" as="targetPoint" />
          </mxGeometry>
        </mxCell>
        <mxCell id="_qHGHUX5CEyV-myd-aj9-52" value="" style="endArrow=none;html=1;rounded=0;exitX=0.5;exitY=1;exitDx=0;exitDy=0;entryX=0;entryY=0;entryDx=0;entryDy=0;" parent="1" source="_qHGHUX5CEyV-myd-aj9-25" target="_qHGHUX5CEyV-myd-aj9-4" edge="1">
          <mxGeometry relative="1" as="geometry">
            <mxPoint x="80" y="210" as="sourcePoint" />
            <mxPoint x="240" y="210" as="targetPoint" />
          </mxGeometry>
        </mxCell>
        <mxCell id="_qHGHUX5CEyV-myd-aj9-53" value="" style="endArrow=none;html=1;rounded=0;exitX=0.5;exitY=1;exitDx=0;exitDy=0;" parent="1" source="_qHGHUX5CEyV-myd-aj9-22" edge="1">
          <mxGeometry relative="1" as="geometry">
            <mxPoint x="80" y="210" as="sourcePoint" />
            <mxPoint x="190" y="209" as="targetPoint" />
          </mxGeometry>
        </mxCell>
        <mxCell id="_qHGHUX5CEyV-myd-aj9-54" value="" style="endArrow=none;html=1;rounded=0;exitX=0.5;exitY=1;exitDx=0;exitDy=0;entryX=0.5;entryY=0;entryDx=0;entryDy=0;" parent="1" source="_qHGHUX5CEyV-myd-aj9-21" target="_qHGHUX5CEyV-myd-aj9-4" edge="1">
          <mxGeometry relative="1" as="geometry">
            <mxPoint x="80" y="210" as="sourcePoint" />
            <mxPoint x="240" y="210" as="targetPoint" />
          </mxGeometry>
        </mxCell>
        <mxCell id="_qHGHUX5CEyV-myd-aj9-55" value="" style="endArrow=none;html=1;rounded=0;entryX=0.5;entryY=0;entryDx=0;entryDy=0;exitX=0.154;exitY=1.006;exitDx=0;exitDy=0;exitPerimeter=0;" parent="1" source="_qHGHUX5CEyV-myd-aj9-4" target="_qHGHUX5CEyV-myd-aj9-23" edge="1">
          <mxGeometry relative="1" as="geometry">
            <mxPoint x="80" y="210" as="sourcePoint" />
            <mxPoint x="240" y="210" as="targetPoint" />
          </mxGeometry>
        </mxCell>
        <mxCell id="_qHGHUX5CEyV-myd-aj9-56" value="" style="endArrow=none;html=1;rounded=0;exitX=0.672;exitY=1.006;exitDx=0;exitDy=0;exitPerimeter=0;entryX=0.5;entryY=0;entryDx=0;entryDy=0;" parent="1" source="_qHGHUX5CEyV-myd-aj9-4" target="_qHGHUX5CEyV-myd-aj9-26" edge="1">
          <mxGeometry relative="1" as="geometry">
            <mxPoint x="80" y="210" as="sourcePoint" />
            <mxPoint x="242" y="310" as="targetPoint" />
          </mxGeometry>
        </mxCell>
        <mxCell id="U-FrvizwRQOyuSLjjeMu-1" value="&lt;font style=&quot;font-size: 24px;&quot;&gt;Pertence a&lt;/font&gt;" style="shape=rhombus;perimeter=rhombusPerimeter;whiteSpace=wrap;html=1;align=center;" vertex="1" parent="1">
          <mxGeometry x="-100" y="200" width="206" height="80" as="geometry" />
        </mxCell>
        <mxCell id="U-FrvizwRQOyuSLjjeMu-9" value="&lt;font style=&quot;font-size: 24px;&quot;&gt;Compete em&lt;br&gt;&lt;/font&gt;" style="shape=rhombus;perimeter=rhombusPerimeter;whiteSpace=wrap;html=1;align=center;rotation=0;" vertex="1" parent="1">
          <mxGeometry x="310" y="50" width="206" height="80" as="geometry" />
        </mxCell>
        <mxCell id="U-FrvizwRQOyuSLjjeMu-10" value="&lt;font style=&quot;font-size: 24px;&quot;&gt;Possui&lt;br&gt;&lt;/font&gt;" style="shape=rhombus;perimeter=rhombusPerimeter;whiteSpace=wrap;html=1;align=center;" vertex="1" parent="1">
          <mxGeometry x="800" y="49.99999999999999" width="206" height="80" as="geometry" />
        </mxCell>
        <mxCell id="U-FrvizwRQOyuSLjjeMu-11" value="&lt;font style=&quot;font-size: 24px;&quot;&gt;Pertence&lt;/font&gt;" style="shape=rhombus;perimeter=rhombusPerimeter;whiteSpace=wrap;html=1;align=center;" vertex="1" parent="1">
          <mxGeometry x="800" y="350" width="206" height="80" as="geometry" />
        </mxCell>
        <mxCell id="U-FrvizwRQOyuSLjjeMu-14" value="&lt;font style=&quot;font-size: 24px;&quot;&gt;Faz Parte de &lt;br&gt;&lt;/font&gt;" style="shape=rhombus;perimeter=rhombusPerimeter;whiteSpace=wrap;html=1;align=center;" vertex="1" parent="1">
          <mxGeometry x="552" y="200" width="206" height="80" as="geometry" />
        </mxCell>
        <mxCell id="U-FrvizwRQOyuSLjjeMu-16" value="&lt;font style=&quot;font-size: 24px;&quot;&gt;Inclui&lt;/font&gt;" style="shape=rhombus;perimeter=rhombusPerimeter;whiteSpace=wrap;html=1;align=center;" vertex="1" parent="1">
          <mxGeometry x="311" y="350" width="206" height="80" as="geometry" />
        </mxCell>
        <mxCell id="U-FrvizwRQOyuSLjjeMu-49" value="" style="shape=link;html=1;rounded=0;exitX=1;exitY=0.5;exitDx=0;exitDy=0;entryX=0;entryY=0.5;entryDx=0;entryDy=0;" edge="1" parent="1" source="_qHGHUX5CEyV-myd-aj9-4" target="U-FrvizwRQOyuSLjjeMu-9">
          <mxGeometry relative="1" as="geometry">
            <mxPoint x="350" y="250" as="sourcePoint" />
            <mxPoint x="393" y="130" as="targetPoint" />
          </mxGeometry>
        </mxCell>
        <mxCell id="U-FrvizwRQOyuSLjjeMu-50" value="N" style="resizable=0;html=1;whiteSpace=wrap;align=right;verticalAlign=bottom;" connectable="0" vertex="1" parent="U-FrvizwRQOyuSLjjeMu-49">
          <mxGeometry x="1" relative="1" as="geometry" />
        </mxCell>
        <mxCell id="U-FrvizwRQOyuSLjjeMu-51" value="" style="shape=link;html=1;rounded=0;entryX=1;entryY=0.5;entryDx=0;entryDy=0;exitX=0;exitY=0.5;exitDx=0;exitDy=0;" edge="1" parent="1" source="_qHGHUX5CEyV-myd-aj9-3" target="U-FrvizwRQOyuSLjjeMu-9">
          <mxGeometry relative="1" as="geometry">
            <mxPoint x="428" y="138.57" as="sourcePoint" />
            <mxPoint x="588" y="138.57" as="targetPoint" />
          </mxGeometry>
        </mxCell>
        <mxCell id="U-FrvizwRQOyuSLjjeMu-52" value="M" style="resizable=0;html=1;whiteSpace=wrap;align=right;verticalAlign=bottom;" connectable="0" vertex="1" parent="U-FrvizwRQOyuSLjjeMu-51">
          <mxGeometry x="1" relative="1" as="geometry" />
        </mxCell>
        <mxCell id="U-FrvizwRQOyuSLjjeMu-53" value="" style="shape=link;html=1;rounded=0;exitX=1;exitY=0.5;exitDx=0;exitDy=0;entryX=0;entryY=0.5;entryDx=0;entryDy=0;" edge="1" parent="1" source="_qHGHUX5CEyV-myd-aj9-3" target="U-FrvizwRQOyuSLjjeMu-10">
          <mxGeometry relative="1" as="geometry">
            <mxPoint x="730" y="20" as="sourcePoint" />
            <mxPoint x="890" y="20" as="targetPoint" />
          </mxGeometry>
        </mxCell>
        <mxCell id="U-FrvizwRQOyuSLjjeMu-54" value="1" style="resizable=0;html=1;whiteSpace=wrap;align=right;verticalAlign=bottom;" connectable="0" vertex="1" parent="U-FrvizwRQOyuSLjjeMu-53">
          <mxGeometry x="1" relative="1" as="geometry" />
        </mxCell>
        <mxCell id="U-FrvizwRQOyuSLjjeMu-55" value="" style="shape=link;html=1;rounded=0;entryX=1;entryY=0.5;entryDx=0;entryDy=0;exitX=0.5;exitY=0;exitDx=0;exitDy=0;" edge="1" parent="1" source="U-FrvizwRQOyuSLjjeMu-61" target="U-FrvizwRQOyuSLjjeMu-10">
          <mxGeometry relative="1" as="geometry">
            <mxPoint x="1070" y="240" as="sourcePoint" />
            <mxPoint x="1060" y="190" as="targetPoint" />
          </mxGeometry>
        </mxCell>
        <mxCell id="U-FrvizwRQOyuSLjjeMu-56" value="N" style="resizable=0;html=1;whiteSpace=wrap;align=right;verticalAlign=bottom;" connectable="0" vertex="1" parent="U-FrvizwRQOyuSLjjeMu-55">
          <mxGeometry x="1" relative="1" as="geometry" />
        </mxCell>
        <mxCell id="U-FrvizwRQOyuSLjjeMu-59" value="" style="shape=link;html=1;rounded=0;entryX=1;entryY=0.5;entryDx=0;entryDy=0;exitX=0.5;exitY=1;exitDx=0;exitDy=0;" edge="1" parent="1" source="U-FrvizwRQOyuSLjjeMu-61" target="U-FrvizwRQOyuSLjjeMu-11">
          <mxGeometry relative="1" as="geometry">
            <mxPoint x="1066" y="270" as="sourcePoint" />
            <mxPoint x="1006" y="270" as="targetPoint" />
          </mxGeometry>
        </mxCell>
        <mxCell id="U-FrvizwRQOyuSLjjeMu-60" value="1" style="resizable=0;html=1;whiteSpace=wrap;align=right;verticalAlign=bottom;" connectable="0" vertex="1" parent="U-FrvizwRQOyuSLjjeMu-59">
          <mxGeometry x="1" relative="1" as="geometry" />
        </mxCell>
        <mxCell id="U-FrvizwRQOyuSLjjeMu-61" value="&lt;font style=&quot;font-size: 24px;&quot;&gt;Fase&lt;/font&gt;" style="shape=ext;margin=3;double=1;whiteSpace=wrap;html=1;align=center;" vertex="1" parent="1">
          <mxGeometry x="940" y="210" width="140" height="60" as="geometry" />
        </mxCell>
        <mxCell id="U-FrvizwRQOyuSLjjeMu-62" value="" style="shape=link;html=1;rounded=0;exitX=1;exitY=0.5;exitDx=0;exitDy=0;entryX=0;entryY=0.5;entryDx=0;entryDy=0;" edge="1" parent="1" source="_qHGHUX5CEyV-myd-aj9-2" target="U-FrvizwRQOyuSLjjeMu-11">
          <mxGeometry relative="1" as="geometry">
            <mxPoint x="746" y="440" as="sourcePoint" />
            <mxPoint x="906" y="440" as="targetPoint" />
          </mxGeometry>
        </mxCell>
        <mxCell id="U-FrvizwRQOyuSLjjeMu-63" value="N" style="resizable=0;html=1;whiteSpace=wrap;align=right;verticalAlign=bottom;" connectable="0" vertex="1" parent="U-FrvizwRQOyuSLjjeMu-62">
          <mxGeometry x="1" relative="1" as="geometry" />
        </mxCell>
        <mxCell id="U-FrvizwRQOyuSLjjeMu-64" value="" style="shape=link;html=1;rounded=0;entryX=0.5;entryY=1;entryDx=0;entryDy=0;exitX=0.5;exitY=0;exitDx=0;exitDy=0;" edge="1" parent="1" source="_qHGHUX5CEyV-myd-aj9-2" target="U-FrvizwRQOyuSLjjeMu-14">
          <mxGeometry relative="1" as="geometry">
            <mxPoint x="608" y="340" as="sourcePoint" />
            <mxPoint x="673" y="260" as="targetPoint" />
          </mxGeometry>
        </mxCell>
        <mxCell id="U-FrvizwRQOyuSLjjeMu-65" value="N" style="resizable=0;html=1;whiteSpace=wrap;align=right;verticalAlign=bottom;" connectable="0" vertex="1" parent="U-FrvizwRQOyuSLjjeMu-64">
          <mxGeometry x="1" relative="1" as="geometry">
            <mxPoint x="-8" y="20" as="offset" />
          </mxGeometry>
        </mxCell>
        <mxCell id="U-FrvizwRQOyuSLjjeMu-66" value="" style="shape=link;html=1;rounded=0;entryX=0.5;entryY=0;entryDx=0;entryDy=0;exitX=0.5;exitY=1;exitDx=0;exitDy=0;" edge="1" parent="1" source="_qHGHUX5CEyV-myd-aj9-3" target="U-FrvizwRQOyuSLjjeMu-14">
          <mxGeometry relative="1" as="geometry">
            <mxPoint x="580" y="160" as="sourcePoint" />
            <mxPoint x="740" y="160" as="targetPoint" />
          </mxGeometry>
        </mxCell>
        <mxCell id="U-FrvizwRQOyuSLjjeMu-67" value="1" style="resizable=0;html=1;whiteSpace=wrap;align=right;verticalAlign=bottom;" connectable="0" vertex="1" parent="U-FrvizwRQOyuSLjjeMu-66">
          <mxGeometry x="1" relative="1" as="geometry">
            <mxPoint x="-8" as="offset" />
          </mxGeometry>
        </mxCell>
        <mxCell id="U-FrvizwRQOyuSLjjeMu-68" value="" style="shape=link;html=1;rounded=0;entryX=1;entryY=0.5;entryDx=0;entryDy=0;exitX=0;exitY=0.5;exitDx=0;exitDy=0;" edge="1" parent="1" source="_qHGHUX5CEyV-myd-aj9-2" target="U-FrvizwRQOyuSLjjeMu-16">
          <mxGeometry relative="1" as="geometry">
            <mxPoint x="406" y="460" as="sourcePoint" />
            <mxPoint x="566" y="460" as="targetPoint" />
          </mxGeometry>
        </mxCell>
        <mxCell id="U-FrvizwRQOyuSLjjeMu-69" value="0" style="resizable=0;html=1;whiteSpace=wrap;align=right;verticalAlign=bottom;" connectable="0" vertex="1" parent="U-FrvizwRQOyuSLjjeMu-68">
          <mxGeometry x="1" relative="1" as="geometry" />
        </mxCell>
        <mxCell id="U-FrvizwRQOyuSLjjeMu-73" value="" style="endArrow=none;html=1;rounded=0;exitX=1;exitY=1;exitDx=0;exitDy=0;entryX=0;entryY=0.5;entryDx=0;entryDy=0;" edge="1" parent="1" source="_qHGHUX5CEyV-myd-aj9-4" target="U-FrvizwRQOyuSLjjeMu-16">
          <mxGeometry relative="1" as="geometry">
            <mxPoint x="210" y="220" as="sourcePoint" />
            <mxPoint x="370" y="220" as="targetPoint" />
          </mxGeometry>
        </mxCell>
        <mxCell id="U-FrvizwRQOyuSLjjeMu-74" value="2" style="resizable=0;html=1;whiteSpace=wrap;align=right;verticalAlign=bottom;" connectable="0" vertex="1" parent="U-FrvizwRQOyuSLjjeMu-73">
          <mxGeometry x="1" relative="1" as="geometry">
            <mxPoint x="9" y="-10" as="offset" />
          </mxGeometry>
        </mxCell>
        <mxCell id="U-FrvizwRQOyuSLjjeMu-75" value="" style="shape=link;html=1;rounded=0;entryX=1;entryY=0.5;entryDx=0;entryDy=0;exitX=0;exitY=0.5;exitDx=0;exitDy=0;" edge="1" parent="1" source="_qHGHUX5CEyV-myd-aj9-4" target="U-FrvizwRQOyuSLjjeMu-1">
          <mxGeometry relative="1" as="geometry">
            <mxPoint x="50" y="290" as="sourcePoint" />
            <mxPoint x="210" y="290" as="targetPoint" />
          </mxGeometry>
        </mxCell>
        <mxCell id="U-FrvizwRQOyuSLjjeMu-76" value="1" style="resizable=0;html=1;whiteSpace=wrap;align=right;verticalAlign=bottom;" connectable="0" vertex="1" parent="U-FrvizwRQOyuSLjjeMu-75">
          <mxGeometry x="1" relative="1" as="geometry" />
        </mxCell>
        <mxCell id="U-FrvizwRQOyuSLjjeMu-77" value="" style="shape=link;html=1;rounded=0;exitX=1;exitY=0.5;exitDx=0;exitDy=0;entryX=0;entryY=0.5;entryDx=0;entryDy=0;" edge="1" parent="1" source="_qHGHUX5CEyV-myd-aj9-1" target="U-FrvizwRQOyuSLjjeMu-1">
          <mxGeometry relative="1" as="geometry">
            <mxPoint x="-160" y="300" as="sourcePoint" />
            <mxPoint y="300" as="targetPoint" />
          </mxGeometry>
        </mxCell>
        <mxCell id="U-FrvizwRQOyuSLjjeMu-78" value="N" style="resizable=0;html=1;whiteSpace=wrap;align=right;verticalAlign=bottom;" connectable="0" vertex="1" parent="U-FrvizwRQOyuSLjjeMu-77">
          <mxGeometry x="1" relative="1" as="geometry" />
        </mxCell>
      </root>
    </mxGraphModel>
  </diagram>
</mxfile>
